<?xml version="1.0" encoding="UTF-8" standalone="no"?>
<svg version="1.1" x="0px" y="0px" viewBox="0 0 40 40" xml:space="preserve" width="40" height="40"
	 xmlns="http://www.w3.org/2000/svg">
<style type="text/css">
	.st0{fill:#DD0031;}
	.st1{fill:#C3002F;}
	.st2{fill:#FFFFFF;}
	.st3{fill:#000000;}
</style>
	<g transform="matrix(0.18,0,0,0.18,-2.5,-3.4)">
	<polygon class="st0" points="218.1,63.2 125,30 31.9,63.2 46.1,186.3 125,230 203.9,186.3"/>
		<polygon class="st1" points="125,30 125,52.2 125,52.1 125,153.4 125,230 203.9,186.3 218.1,63.2"/>
</g>
	<g>
	<path class="st2"
		  d="M 20 8 C 14.803383 8 10.360839 11.334544 8.6992188 15.972656 L 9.625 15.046875 L 11.703125 17.125 C 12.887508 13.681641 16.141878 11.222656 20 11.222656 C 24.866721 11.222656 28.777344 15.133279 28.777344 20 L 25.412109 20 L 28.291016 22.878906 L 30.369141 24.957031 L 31.292969 24.033203 L 35.328125 20 L 32 20 C 32 13.391786 26.608214 8 20 8 z "/>
		<path class="st3"
			  d="m 9.625,15.046875 -4.9589844,4.957031 h 3.328125 c 4e-7,6.608215 5.3917854,12 12.0000004,12 5.195204,0 9.636147,-3.334561 11.298828,-7.970703 l -0.923828,0.923828 -2.078125,-2.078125 c -1.184383,3.44336 -4.438753,5.902345 -8.296875,5.902344 -4.866722,0 -8.777344,-3.910623 -8.777344,-8.777344 h 3.365234 z"/>
</g>
</svg>
