<?xml version="1.0" encoding="UTF-8" standalone="no"?>
<!-- Generator: Adobe Illustrator 19.1.0, SVG Export Plug-In . SVG Version: 6.00 Build 0)  -->

<svg
		version="1.1"
		id="Layer_1"
		x="0px"
		y="0px"
		viewBox="0 0 40 40"
		xml:space="preserve"
		sodipodi:docname="logo3.svg"
		width="40"
		height="40"
		inkscape:version="1.2.1 (ef4d3fba62, 2022-07-19, custom)"
		xmlns:inkscape="http://www.inkscape.org/namespaces/inkscape"
		xmlns:sodipodi="http://sodipodi.sourceforge.net/DTD/sodipodi-0.dtd"
		xmlns="http://www.w3.org/2000/svg"
><defs
   id="defs20445" />
	<sodipodi:namedview
			id="namedview20443"
			pagecolor="#ffffff"
			bordercolor="#000000"
			borderopacity="0.25"
			inkscape:showpageshadow="2"
			inkscape:pageopacity="0.0"
			inkscape:pagecheckerboard="0"
			inkscape:deskcolor="#d1d1d1"
			showgrid="false"
			inkscape:zoom="22.627417"
			inkscape:cx="19.533825"
			inkscape:cy="16.948466"
			inkscape:window-width="1920"
			inkscape:window-height="1016"
			inkscape:window-x="0"
			inkscape:window-y="27"
			inkscape:window-maximized="1"
			inkscape:current-layer="Layer_1"/>
	<style
			type="text/css"
			id="style20432">
	.st0{fill:#DD0031;}
	.st1{fill:#C3002F;}
	.st2{fill:#FFFFFF;}
</style>
	<g
			id="g20440"
			transform="matrix(0.18,0,0,0.18,-2.5,-3.4)">
	<polygon
			class="st0"
			points="218.1,63.2 125,30 31.9,63.2 46.1,186.3 125,230 203.9,186.3 "
			id="polygon20434"/>
		<polygon
				class="st1"
				points="125,30 125,52.2 125,52.1 125,153.4 125,230 203.9,186.3 218.1,63.2 "
				id="polygon20436"/>
	
</g>
	<g
			id="g40334"><path
     id="path21213"
     style="color:#000000;display:inline;opacity:1;fill:#ffffff;stroke-width:0.976;stroke-dasharray:none;fill-opacity:1"
     inkscape:transform-center-x="-1.6669836"
     inkscape:transform-center-y="-3.523016"
     d="M 20 8 C 14.803383 8 10.360839 11.334544 8.6992188 15.972656 L 9.625 15.046875 L 11.703125 17.125 C 12.887508 13.681641 16.141878 11.222656 20 11.222656 C 24.866721 11.222656 28.777344 15.133279 28.777344 20 L 25.412109 20 L 28.291016 22.878906 L 30.369141 24.957031 L 31.292969 24.033203 L 35.328125 20 L 32 20 C 32 13.391786 26.608214 8 20 8 z " />
		<path
				id="path32893"
				style="color:#000000;display:inline;opacity:1;fill:#000000;fill-opacity:1;stroke-width:0.976;stroke-dasharray:none"
				inkscape:transform-center-x="1.6669837"
				inkscape:transform-center-y="3.523016"
				d="m 9.625,15.046875 -4.9589844,4.957031 h 3.328125 c 4e-7,6.608215 5.3917854,12 12.0000004,12 5.195204,0 9.636147,-3.334561 11.298828,-7.970703 l -0.923828,0.923828 -2.078125,-2.078125 c -1.184383,3.44336 -4.438753,5.902345 -8.296875,5.902344 -4.866722,0 -8.777344,-3.910623 -8.777344,-8.777344 h 3.365234 z"/></g></svg>
